<?xml version="1.0" standalone="no"?><svg xmlns="http://www.w3.org/2000/svg" viewBox="0 0 1440 320"><path fill="#00cba9" fill-opacity="0.7" d="M0,64L21.8,64C43.6,64,87,64,131,96C174.5,128,218,192,262,218.7C305.5,245,349,235,393,213.3C436.4,192,480,160,524,154.7C567.3,149,611,171,655,165.3C698.2,160,742,128,785,117.3C829.1,107,873,117,916,122.7C960,128,1004,128,1047,144C1090.9,160,1135,192,1178,202.7C1221.8,213,1265,203,1309,170.7C1352.7,139,1396,85,1418,58.7L1440,32L1440,0L1418.2,0C1396.4,0,1353,0,1309,0C1265.5,0,1222,0,1178,0C1134.5,0,1091,0,1047,0C1003.6,0,960,0,916,0C872.7,0,829,0,785,0C741.8,0,698,0,655,0C610.9,0,567,0,524,0C480,0,436,0,393,0C349.1,0,305,0,262,0C218.2,0,175,0,131,0C87.3,0,44,0,22,0L0,0Z"></path></svg>